<?xml version="1.0" encoding="UTF-8" standalone="no"?>
<svg
   xmlns:dc="http://purl.org/dc/elements/1.1/"
   xmlns:cc="http://creativecommons.org/ns#"
   xmlns:rdf="http://www.w3.org/1999/02/22-rdf-syntax-ns#"
   xmlns:svg="http://www.w3.org/2000/svg"
   xmlns="http://www.w3.org/2000/svg"
   xmlns:xlink="http://www.w3.org/1999/xlink"
   xmlns:sodipodi="http://sodipodi.sourceforge.net/DTD/sodipodi-0.dtd"
   xmlns:inkscape="http://www.inkscape.org/namespaces/inkscape"
   inkscape:version="1.0 (4035a4fb49, 2020-05-01)"
   sodipodi:docname="icon-research.svg"
   id="svg60"
   xml:space="preserve"
   width="32px"
   viewBox="0 0 32 32"
   version="1.1"
   height="32px"
   enable-background="new 0 0 32 32"><metadata
     id="metadata66"><rdf:RDF><cc:Work
         rdf:about=""><dc:format>image/svg+xml</dc:format><dc:type
           rdf:resource="http://purl.org/dc/dcmitype/StillImage" /><dc:title></dc:title></cc:Work></rdf:RDF></metadata><defs
     id="defs64"><linearGradient
       id="linearGradient895"
       inkscape:collect="always"><stop
         id="stop891"
         offset="0"
         style="stop-color:#c8c78b;stop-opacity:1" /><stop
         id="stop893"
         offset="1"
         style="stop-color:#c88b8b;stop-opacity:1" /></linearGradient><linearGradient
       gradientUnits="userSpaceOnUse"
       y2="31.821827"
       x2="33.280624"
       y1="0.57015592"
       x1="0.28730512"
       id="linearGradient897"
       xlink:href="#linearGradient895"
       inkscape:collect="always" /><linearGradient
       y2="31.821827"
       x2="33.280624"
       y1="0.57015592"
       x1="0.28730512"
       gradientUnits="userSpaceOnUse"
       id="linearGradient899"
       xlink:href="#linearGradient895"
       inkscape:collect="always" /><linearGradient
       y2="31.821827"
       x2="33.280624"
       y1="0.57015592"
       x1="0.28730512"
       gradientUnits="userSpaceOnUse"
       id="linearGradient901"
       xlink:href="#linearGradient895"
       inkscape:collect="always" /><linearGradient
       y2="31.821827"
       x2="33.280624"
       y1="0.57015592"
       x1="0.28730512"
       gradientUnits="userSpaceOnUse"
       id="linearGradient903"
       xlink:href="#linearGradient895"
       inkscape:collect="always" /><linearGradient
       y2="31.821827"
       x2="33.280624"
       y1="0.57015592"
       x1="0.28730512"
       gradientUnits="userSpaceOnUse"
       id="linearGradient905"
       xlink:href="#linearGradient895"
       inkscape:collect="always" /><linearGradient
       y2="31.821827"
       x2="33.280624"
       y1="0.57015592"
       x1="0.28730512"
       gradientUnits="userSpaceOnUse"
       id="linearGradient907"
       xlink:href="#linearGradient895"
       inkscape:collect="always" /><linearGradient
       y2="31.821827"
       x2="33.280624"
       y1="0.57015592"
       x1="0.28730512"
       gradientUnits="userSpaceOnUse"
       id="linearGradient909"
       xlink:href="#linearGradient895"
       inkscape:collect="always" /><linearGradient
       y2="31.821827"
       x2="33.280624"
       y1="0.57015592"
       x1="0.28730512"
       gradientUnits="userSpaceOnUse"
       id="linearGradient911"
       xlink:href="#linearGradient895"
       inkscape:collect="always" /><linearGradient
       y2="31.821827"
       x2="33.280624"
       y1="0.57015592"
       x1="0.28730512"
       gradientUnits="userSpaceOnUse"
       id="linearGradient913"
       xlink:href="#linearGradient895"
       inkscape:collect="always" /><linearGradient
       y2="31.821827"
       x2="33.280624"
       y1="0.57015592"
       x1="0.28730512"
       gradientUnits="userSpaceOnUse"
       id="linearGradient915"
       xlink:href="#linearGradient895"
       inkscape:collect="always" /><linearGradient
       y2="31.821827"
       x2="33.280624"
       y1="0.57015592"
       x1="0.28730512"
       gradientUnits="userSpaceOnUse"
       id="linearGradient917"
       xlink:href="#linearGradient895"
       inkscape:collect="always" /><linearGradient
       y2="31.821827"
       x2="33.280624"
       y1="0.57015592"
       x1="0.28730512"
       gradientUnits="userSpaceOnUse"
       id="linearGradient919"
       xlink:href="#linearGradient895"
       inkscape:collect="always" /><linearGradient
       y2="31.821827"
       x2="33.280624"
       y1="0.57015592"
       x1="0.28730512"
       gradientUnits="userSpaceOnUse"
       id="linearGradient921"
       xlink:href="#linearGradient895"
       inkscape:collect="always" /><linearGradient
       y2="31.821827"
       x2="33.280624"
       y1="0.57015592"
       x1="0.28730512"
       gradientUnits="userSpaceOnUse"
       id="linearGradient923"
       xlink:href="#linearGradient895"
       inkscape:collect="always" /><linearGradient
       y2="31.821827"
       x2="33.280624"
       y1="0.57015592"
       x1="0.28730512"
       gradientUnits="userSpaceOnUse"
       id="linearGradient925"
       xlink:href="#linearGradient895"
       inkscape:collect="always" /><linearGradient
       y2="31.821827"
       x2="33.280624"
       y1="0.57015592"
       x1="0.28730512"
       gradientUnits="userSpaceOnUse"
       id="linearGradient927"
       xlink:href="#linearGradient895"
       inkscape:collect="always" /><linearGradient
       y2="31.821827"
       x2="33.280624"
       y1="0.57015592"
       x1="0.28730512"
       gradientUnits="userSpaceOnUse"
       id="linearGradient929"
       xlink:href="#linearGradient895"
       inkscape:collect="always" /><linearGradient
       y2="31.821827"
       x2="33.280624"
       y1="0.57015592"
       x1="0.28730512"
       gradientUnits="userSpaceOnUse"
       id="linearGradient931"
       xlink:href="#linearGradient895"
       inkscape:collect="always" /><linearGradient
       y2="31.821827"
       x2="33.280624"
       y1="0.57015592"
       x1="0.28730512"
       gradientUnits="userSpaceOnUse"
       id="linearGradient933"
       xlink:href="#linearGradient895"
       inkscape:collect="always" /><linearGradient
       y2="31.821827"
       x2="33.280624"
       y1="0.57015592"
       x1="0.28730512"
       gradientUnits="userSpaceOnUse"
       id="linearGradient935"
       xlink:href="#linearGradient895"
       inkscape:collect="always" /><linearGradient
       y2="31.821827"
       x2="33.280624"
       y1="0.57015592"
       x1="0.28730512"
       gradientUnits="userSpaceOnUse"
       id="linearGradient937"
       xlink:href="#linearGradient895"
       inkscape:collect="always" /><linearGradient
       y2="31.821827"
       x2="33.280624"
       y1="0.57015592"
       x1="0.28730512"
       gradientUnits="userSpaceOnUse"
       id="linearGradient939"
       xlink:href="#linearGradient895"
       inkscape:collect="always" /><linearGradient
       y2="31.821827"
       x2="33.280624"
       y1="0.57015592"
       x1="0.28730512"
       gradientUnits="userSpaceOnUse"
       id="linearGradient941"
       xlink:href="#linearGradient895"
       inkscape:collect="always" /><linearGradient
       y2="31.821827"
       x2="33.280624"
       y1="0.57015592"
       x1="0.28730512"
       gradientUnits="userSpaceOnUse"
       id="linearGradient943"
       xlink:href="#linearGradient895"
       inkscape:collect="always" /><linearGradient
       y2="31.821827"
       x2="33.280624"
       y1="0.57015592"
       x1="0.28730512"
       gradientUnits="userSpaceOnUse"
       id="linearGradient945"
       xlink:href="#linearGradient895"
       inkscape:collect="always" /><linearGradient
       y2="31.821827"
       x2="33.280624"
       y1="0.57015592"
       x1="0.28730512"
       gradientUnits="userSpaceOnUse"
       id="linearGradient947"
       xlink:href="#linearGradient895"
       inkscape:collect="always" /><linearGradient
       y2="31.821827"
       x2="33.280624"
       y1="0.57015592"
       x1="0.28730512"
       gradientUnits="userSpaceOnUse"
       id="linearGradient949"
       xlink:href="#linearGradient895"
       inkscape:collect="always" /><linearGradient
       y2="31.821827"
       x2="33.280624"
       y1="0.57015592"
       x1="0.28730512"
       gradientUnits="userSpaceOnUse"
       id="linearGradient951"
       xlink:href="#linearGradient895"
       inkscape:collect="always" /><linearGradient
       y2="31.821827"
       x2="33.280624"
       y1="0.57015592"
       x1="0.28730512"
       gradientUnits="userSpaceOnUse"
       id="linearGradient953"
       xlink:href="#linearGradient895"
       inkscape:collect="always" /><linearGradient
       y2="31.821827"
       x2="33.280624"
       y1="0.57015592"
       x1="0.28730512"
       gradientUnits="userSpaceOnUse"
       id="linearGradient955"
       xlink:href="#linearGradient895"
       inkscape:collect="always" /><linearGradient
       gradientUnits="userSpaceOnUse"
       y2="16"
       x2="31"
       y1="16"
       x1="1"
       id="linearGradient971"
       xlink:href="#linearGradient895"
       inkscape:collect="always" /><linearGradient
       y2="16"
       x2="31"
       y1="16"
       x1="1"
       gradientUnits="userSpaceOnUse"
       id="linearGradient973"
       xlink:href="#linearGradient895"
       inkscape:collect="always" /><linearGradient
       y2="16"
       x2="31"
       y1="16"
       x1="1"
       gradientUnits="userSpaceOnUse"
       id="linearGradient975"
       xlink:href="#linearGradient895"
       inkscape:collect="always" /><linearGradient
       y2="16"
       x2="31"
       y1="16"
       x1="1"
       gradientUnits="userSpaceOnUse"
       id="linearGradient977"
       xlink:href="#linearGradient895"
       inkscape:collect="always" /><linearGradient
       y2="16"
       x2="31"
       y1="16"
       x1="1"
       gradientUnits="userSpaceOnUse"
       id="linearGradient979"
       xlink:href="#linearGradient895"
       inkscape:collect="always" /><linearGradient
       y2="16"
       x2="31"
       y1="16"
       x1="1"
       gradientUnits="userSpaceOnUse"
       id="linearGradient981"
       xlink:href="#linearGradient895"
       inkscape:collect="always" /><linearGradient
       y2="16"
       x2="31"
       y1="16"
       x1="1"
       gradientUnits="userSpaceOnUse"
       id="linearGradient983"
       xlink:href="#linearGradient895"
       inkscape:collect="always" /><linearGradient
       y2="16"
       x2="31"
       y1="16"
       x1="1"
       gradientUnits="userSpaceOnUse"
       id="linearGradient985"
       xlink:href="#linearGradient895"
       inkscape:collect="always" /><linearGradient
       y2="16"
       x2="31"
       y1="16"
       x1="1"
       gradientUnits="userSpaceOnUse"
       id="linearGradient987"
       xlink:href="#linearGradient895"
       inkscape:collect="always" /><linearGradient
       y2="16"
       x2="31"
       y1="16"
       x1="1"
       gradientUnits="userSpaceOnUse"
       id="linearGradient989"
       xlink:href="#linearGradient895"
       inkscape:collect="always" /><linearGradient
       y2="16"
       x2="31"
       y1="16"
       x1="1"
       gradientUnits="userSpaceOnUse"
       id="linearGradient991"
       xlink:href="#linearGradient895"
       inkscape:collect="always" /><linearGradient
       y2="16"
       x2="31"
       y1="16"
       x1="1"
       gradientUnits="userSpaceOnUse"
       id="linearGradient993"
       xlink:href="#linearGradient895"
       inkscape:collect="always" /><linearGradient
       y2="16"
       x2="31"
       y1="16"
       x1="1"
       gradientUnits="userSpaceOnUse"
       id="linearGradient995"
       xlink:href="#linearGradient895"
       inkscape:collect="always" /><linearGradient
       y2="16"
       x2="31"
       y1="16"
       x1="1"
       gradientUnits="userSpaceOnUse"
       id="linearGradient997"
       xlink:href="#linearGradient895"
       inkscape:collect="always" /><linearGradient
       y2="16"
       x2="31"
       y1="16"
       x1="1"
       gradientUnits="userSpaceOnUse"
       id="linearGradient999"
       xlink:href="#linearGradient895"
       inkscape:collect="always" /><linearGradient
       y2="16"
       x2="31"
       y1="16"
       x1="1"
       gradientUnits="userSpaceOnUse"
       id="linearGradient1001"
       xlink:href="#linearGradient895"
       inkscape:collect="always" /><linearGradient
       y2="16"
       x2="31"
       y1="-2.6625886"
       x1="20.895552"
       gradientUnits="userSpaceOnUse"
       id="linearGradient1005"
       xlink:href="#linearGradient895"
       inkscape:collect="always" /><linearGradient
       y2="28.161507"
       x2="35.147243"
       y1="-1.8219314"
       x1="15.963697"
       gradientUnits="userSpaceOnUse"
       id="linearGradient1007"
       xlink:href="#linearGradient895"
       inkscape:collect="always" /><linearGradient
       y2="16"
       x2="31"
       y1="16"
       x1="1"
       gradientUnits="userSpaceOnUse"
       id="linearGradient1081"
       xlink:href="#linearGradient895"
       inkscape:collect="always" /><linearGradient
       y2="16"
       x2="31"
       y1="16"
       x1="1"
       gradientUnits="userSpaceOnUse"
       id="linearGradient1083"
       xlink:href="#linearGradient895"
       inkscape:collect="always" /><linearGradient
       y2="16"
       x2="31"
       y1="16"
       x1="1"
       gradientUnits="userSpaceOnUse"
       id="linearGradient1085"
       xlink:href="#linearGradient895"
       inkscape:collect="always" /><linearGradient
       y2="16"
       x2="31"
       y1="16"
       x1="1"
       gradientUnits="userSpaceOnUse"
       id="linearGradient1087"
       xlink:href="#linearGradient895"
       inkscape:collect="always" /><linearGradient
       y2="16"
       x2="31"
       y1="16"
       x1="1"
       gradientUnits="userSpaceOnUse"
       id="linearGradient1089"
       xlink:href="#linearGradient895"
       inkscape:collect="always" /><linearGradient
       y2="16"
       x2="31"
       y1="16"
       x1="1"
       gradientUnits="userSpaceOnUse"
       id="linearGradient1091"
       xlink:href="#linearGradient895"
       inkscape:collect="always" /><linearGradient
       y2="16"
       x2="31"
       y1="16"
       x1="1"
       gradientUnits="userSpaceOnUse"
       id="linearGradient1093"
       xlink:href="#linearGradient895"
       inkscape:collect="always" /><linearGradient
       y2="16"
       x2="31"
       y1="16"
       x1="1"
       gradientUnits="userSpaceOnUse"
       id="linearGradient1095"
       xlink:href="#linearGradient895"
       inkscape:collect="always" /><linearGradient
       y2="16"
       x2="31"
       y1="16"
       x1="1"
       gradientUnits="userSpaceOnUse"
       id="linearGradient1097"
       xlink:href="#linearGradient895"
       inkscape:collect="always" /><linearGradient
       y2="16"
       x2="31"
       y1="16"
       x1="1"
       gradientUnits="userSpaceOnUse"
       id="linearGradient1099"
       xlink:href="#linearGradient895"
       inkscape:collect="always" /><linearGradient
       y2="16"
       x2="31"
       y1="16"
       x1="1"
       gradientUnits="userSpaceOnUse"
       id="linearGradient1101"
       xlink:href="#linearGradient895"
       inkscape:collect="always" /><linearGradient
       y2="16"
       x2="31"
       y1="16"
       x1="1"
       gradientUnits="userSpaceOnUse"
       id="linearGradient1103"
       xlink:href="#linearGradient895"
       inkscape:collect="always" /></defs><sodipodi:namedview
     inkscape:current-layer="listing_search_magnifier_magnifying_glass_loupe"
     inkscape:window-maximized="1"
     inkscape:window-y="-9"
     inkscape:window-x="-9"
     inkscape:cy="14.450259"
     inkscape:cx="12.355592"
     inkscape:zoom="19.843184"
     showgrid="false"
     id="namedview62"
     inkscape:window-height="1051"
     inkscape:window-width="1920"
     inkscape:pageshadow="2"
     inkscape:pageopacity="0"
     guidetolerance="10"
     gridtolerance="10"
     objecttolerance="10"
     borderopacity="1"
     bordercolor="#666666"
     pagecolor="#ffffff" /><g
     transform="matrix(0.89920972,0,0,0.89920972,1.6126444,1.6126444)"
     style="fill:url(#linearGradient897);fill-opacity:1;stroke-width:0.27802191;stroke:url(#linearGradient971);stroke-miterlimit:4;stroke-dasharray:none"
     id="listing_search_magnifier_magnifying_glass_loupe"><g
       transform="matrix(0.97199646,0,0,0.9719781,0.4480566,0.44835047)"
       style="fill:url(#linearGradient919);fill-opacity:1;stroke:url(#linearGradient1099);stroke-width:0.286034;stroke-miterlimit:4;stroke-dasharray:none"
       id="g19"><g
         style="fill:url(#linearGradient917);fill-opacity:1;stroke:url(#linearGradient1097);stroke-width:0.286035;stroke-miterlimit:4;stroke-dasharray:none"
         id="tax_x2C__duty_x2C__charge_x2C__percent_1_"><g
           style="fill:url(#linearGradient915);fill-opacity:1;stroke:url(#linearGradient1095);stroke-width:0.286035;stroke-miterlimit:4;stroke-dasharray:none"
           id="white_paper_1_"><g
             style="fill:url(#linearGradient913);fill-opacity:1;stroke:url(#linearGradient1093);stroke-width:0.286035;stroke-miterlimit:4;stroke-dasharray:none"
             id="digital_key_1_"><g
               style="fill:url(#linearGradient911);fill-opacity:1;stroke:url(#linearGradient1091);stroke-width:0.286035;stroke-miterlimit:4;stroke-dasharray:none"
               id="g14"><g
                 style="fill:url(#linearGradient903);fill-opacity:1;stroke:url(#linearGradient1083);stroke-width:0.286035;stroke-miterlimit:4;stroke-dasharray:none"
                 id="g6"><g
                   style="fill:url(#linearGradient901);fill-opacity:1;stroke:url(#linearGradient1081);stroke-width:0.286035;stroke-miterlimit:4;stroke-dasharray:none"
                   id="g4"><path
                     style="fill:url(#linearGradient899);fill-opacity:1;stroke:url(#linearGradient1005);stroke-width:0.286035;stroke-miterlimit:4;stroke-dasharray:none"
                     id="path2"
                     fill="#263238"
                     d="M 30.5,6 C 30.776,6 31,5.776 31,5.5 v -1 C 31,3.121 29.879,2 28.5,2 h -1 C 27.224,2 27,2.224 27,2.5 27,2.776 27.224,3 27.5,3 h 1 C 29.327,3 30,3.673 30,4.5 v 1 C 30,5.776 30.224,6 30.5,6 Z" /></g></g><g
                 style="fill:url(#linearGradient909);fill-opacity:1;stroke:url(#linearGradient1089);stroke-width:0.286035;stroke-miterlimit:4;stroke-dasharray:none"
                 id="g12"><g
                   style="fill:url(#linearGradient907);fill-opacity:1;stroke:url(#linearGradient1087);stroke-width:0.286035;stroke-miterlimit:4;stroke-dasharray:none"
                   id="g10"><path
                     style="fill:url(#linearGradient905);fill-opacity:1;stroke:url(#linearGradient1085);stroke-width:0.286035;stroke-miterlimit:4;stroke-dasharray:none"
                     id="path8"
                     fill="#263238"
                     d="m 1,27.5 v -1 C 1,26.224 1.224,26 1.5,26 h 21 c 0.276,0 0.5,0.224 0.5,0.5 v 1 c 0,0.827 0.673,1.5 1.5,1.5 0.276,0 0.5,0.224 0.5,0.5 0,0.276 -0.224,0.5 -0.5,0.5 H 3.5 C 2.121,30 1,28.879 1,27.5 Z m 21,0 V 27 H 2 v 0.5 C 2,28.327 2.673,29 3.5,29 H 22.501 C 22.187,28.582 22,28.063 22,27.5 Z" /></g></g></g></g></g></g></g><g
       transform="matrix(0.78381222,0,0,0.78379741,4.2117413,3.4592414)"
       style="fill:url(#linearGradient949);fill-opacity:1;stroke:url(#linearGradient1001);stroke-width:0.354708;stroke-miterlimit:4;stroke-dasharray:none"
       id="g51"><g
         style="fill:url(#linearGradient939);fill-opacity:1;stroke:url(#linearGradient991);stroke-width:0.354708;stroke-miterlimit:4;stroke-dasharray:none"
         id="g39"><g
           style="fill:url(#linearGradient937);fill-opacity:1;stroke:url(#linearGradient989);stroke-width:0.354708;stroke-miterlimit:4;stroke-dasharray:none"
           id="g37"><g
             style="fill:url(#linearGradient925);fill-opacity:1;stroke:url(#linearGradient977);stroke-width:0.354708;stroke-miterlimit:4;stroke-dasharray:none"
             id="g25"><g
               style="fill:url(#linearGradient923);fill-opacity:1;stroke:url(#linearGradient975);stroke-width:0.354708;stroke-miterlimit:4;stroke-dasharray:none"
               id="g23"><path
                 style="fill:url(#linearGradient921);fill-opacity:1;stroke:url(#linearGradient973);stroke-width:0.354708;stroke-miterlimit:4;stroke-dasharray:none"
                 id="path21"
                 fill="#263238"
                 d="m 22.011,18.01 c -0.195,0.196 -0.195,0.512 0,0.708 l 1.414,1.414 c 0.195,0.195 0.512,0.195 0.707,0 0.195,-0.195 0.195,-0.512 0,-0.707 L 22.718,18.01 c -0.196,-0.196 -0.512,-0.196 -0.707,0 z" /></g></g><g
             style="fill:url(#linearGradient931);fill-opacity:1;stroke:url(#linearGradient983);stroke-width:0.354708;stroke-miterlimit:4;stroke-dasharray:none"
             id="g31"><g
               style="fill:url(#linearGradient929);fill-opacity:1;stroke:url(#linearGradient981);stroke-width:0.354708;stroke-miterlimit:4;stroke-dasharray:none"
               id="g29"><path
                 style="fill:url(#linearGradient927);fill-opacity:1;stroke:url(#linearGradient979);stroke-width:0.354708;stroke-miterlimit:4;stroke-dasharray:none"
                 id="path27"
                 fill="#263238"
                 d="m 17,21 c -4.411,0 -8,-3.589 -8,-8 0,-4.411 3.589,-8 8,-8 1.66,0 3.252,0.504 4.605,1.458 0.226,0.158 0.28,0.471 0.121,0.696 C 21.567,7.38 21.254,7.435 21.029,7.274 19.846,6.44 18.453,6 17,6 c -3.86,0 -7,3.141 -7,7 0,3.859 3.14,7 7,7 3.86,0 7,-3.141 7,-7 0,-0.719 -0.108,-1.427 -0.322,-2.105 -0.083,-0.264 0.063,-0.545 0.327,-0.627 0.264,-0.081 0.544,0.063 0.627,0.326 C 24.876,11.37 25,12.18 25,13 c 0,4.411 -3.589,8 -8,8 z" /></g></g><g
             style="fill:url(#linearGradient935);fill-opacity:1;stroke:url(#linearGradient987);stroke-width:0.354708;stroke-miterlimit:4;stroke-dasharray:none"
             id="g35"><path
               style="fill:url(#linearGradient933);fill-opacity:1;stroke:url(#linearGradient985);stroke-width:0.354708;stroke-miterlimit:4;stroke-dasharray:none"
               id="path33"
               fill="#263238"
               d="m 25,20 c 0.256,0 0.512,0.098 0.707,0.293 l 4,4 c 0.391,0.391 0.391,1.023 0,1.414 C 29.512,25.902 29.256,26 29,26 28.744,26 28.488,25.902 28.293,25.707 l -4,-4 c -0.391,-0.391 -0.391,-1.023 0,-1.414 C 24.488,20.098 24.744,20 25,20 Z m 0,-1 c -0.534,0 -1.036,0.208 -1.414,0.586 C 23.208,19.964 23,20.466 23,21 c 0,0.534 0.208,1.036 0.586,1.414 l 4,4 C 27.964,26.792 28.466,27 29,27 29.534,27 30.036,26.792 30.414,26.414 30.792,26.036 31,25.534 31,25 31,24.466 30.792,23.964 30.414,23.586 l -4,-4 C 26.036,19.208 25.534,19 25,19 Z" /></g></g></g><g
         style="fill:url(#linearGradient947);fill-opacity:1;stroke:url(#linearGradient999);stroke-width:0.354708;stroke-miterlimit:4;stroke-dasharray:none"
         id="g49"><g
           style="fill:url(#linearGradient945);fill-opacity:1;stroke:url(#linearGradient997);stroke-width:0.354708;stroke-miterlimit:4;stroke-dasharray:none"
           id="g47"><g
             style="fill:url(#linearGradient943);fill-opacity:1;stroke:url(#linearGradient995);stroke-width:0.354708;stroke-miterlimit:4;stroke-dasharray:none"
             id="g45"><g
               style="fill:url(#linearGradient941);fill-opacity:1;stroke:url(#linearGradient993);stroke-width:0.354708;stroke-miterlimit:4;stroke-dasharray:none"
               id="g43" /></g></g></g></g><g
       transform="matrix(0.97199646,0,0,0.9719781,0.4480566,0.44835047)"
       style="fill:url(#linearGradient955);fill-opacity:1;stroke:url(#linearGradient1103);stroke-width:0.286034;stroke-miterlimit:4;stroke-dasharray:none"
       id="g57"><path
         style="fill:url(#linearGradient951);fill-opacity:1;stroke:url(#linearGradient1007);stroke-width:0.286035;stroke-miterlimit:4;stroke-dasharray:none"
         id="path53"
         fill="#263238"
         d="M 28.5,3 C 28.776,3 29,2.776 29,2.5 29,2.224 28.776,2 28.5,2 H 8.5 C 7.121,2 6,3.121 6,4.5 v 20 C 6,24.776 6.224,25 6.5,25 6.776,25 7,24.776 7,24.5 V 4.5 C 7,3.673 7.673,3 8.5,3 H 26.501 C 26.187,3.418 26,3.938 26,4.5 v 13 c 0,0.276 0.224,0.5 0.5,0.5 v 0 C 26.776,18 27,17.776 27,17.5 V 4.5 C 27,3.673 27.673,3 28.5,3 Z" /><path
         style="fill:url(#linearGradient953);fill-opacity:1;stroke:url(#linearGradient1101);stroke-width:0.286035;stroke-miterlimit:4;stroke-dasharray:none"
         id="path55"
         fill="#263238"
         d="m 24.5,29 h -1.75 v 1 h 1.75 c 1.379,0 2.5,-1.121 2.5,-2.5 v 0 C 27,27.224 26.776,27 26.5,27 v 0 C 26.224,27 26,27.224 26,27.5 v 0 c 0,0.827 -0.673,1.5 -1.5,1.5 z" /></g></g></svg>
