<?xml version="1.0" encoding="UTF-8" standalone="no"?>
<svg
   xmlns:dc="http://purl.org/dc/elements/1.1/"
   xmlns:cc="http://creativecommons.org/ns#"
   xmlns:rdf="http://www.w3.org/1999/02/22-rdf-syntax-ns#"
   xmlns:svg="http://www.w3.org/2000/svg"
   xmlns="http://www.w3.org/2000/svg"
   xmlns:xlink="http://www.w3.org/1999/xlink"
   xmlns:sodipodi="http://sodipodi.sourceforge.net/DTD/sodipodi-0.dtd"
   xmlns:inkscape="http://www.inkscape.org/namespaces/inkscape"
   inkscape:version="1.0 (4035a4fb49, 2020-05-01)"
   sodipodi:docname="icon-create.svg"
   id="svg11"
   width="36"
   viewBox="0 0 36 32"
   version="1.1"
   height="32">
  <metadata
     id="metadata15">
    <rdf:RDF>
      <cc:Work
         rdf:about="">
        <dc:format>image/svg+xml</dc:format>
        <dc:type
           rdf:resource="http://purl.org/dc/dcmitype/StillImage" />
        <dc:title></dc:title>
      </cc:Work>
    </rdf:RDF>
  </metadata>
  <sodipodi:namedview
     inkscape:current-layer="svg11"
     inkscape:window-maximized="1"
     inkscape:window-y="-9"
     inkscape:window-x="-9"
     inkscape:cy="16.137294"
     inkscape:cx="15.657469"
     inkscape:zoom="19.843184"
     showgrid="false"
     id="namedview13"
     inkscape:window-height="1051"
     inkscape:window-width="1920"
     inkscape:pageshadow="2"
     inkscape:pageopacity="0"
     guidetolerance="10"
     gridtolerance="10"
     objecttolerance="10"
     borderopacity="1"
     bordercolor="#666666"
     pagecolor="#ffffff" />
  <desc
     id="desc4" />
  <defs
     id="defs6">
    <linearGradient
       id="linearGradient844"
       inkscape:collect="always">
      <stop
         id="stop840"
         offset="0"
         style="stop-color:#c6c88b;stop-opacity:1" />
      <stop
         id="stop842"
         offset="1"
         style="stop-color:#c88b8b;stop-opacity:1" />
    </linearGradient>
    <linearGradient
       gradientUnits="userSpaceOnUse"
       y2="29.506681"
       x2="30.0989"
       y1="1.2839644"
       x1="1.6815145"
       id="linearGradient846"
       xlink:href="#linearGradient844"
       inkscape:collect="always" />
    <linearGradient
       y2="29.506681"
       x2="30.0989"
       y1="1.2839644"
       x1="1.6815145"
       gradientUnits="userSpaceOnUse"
       id="linearGradient852"
       xlink:href="#linearGradient844"
       inkscape:collect="always" />
    <linearGradient
       y2="29.506681"
       x2="30.0989"
       y1="1.2839644"
       x1="1.6815145"
       gradientUnits="userSpaceOnUse"
       id="linearGradient854"
       xlink:href="#linearGradient844"
       inkscape:collect="always" />
    <linearGradient
       gradientUnits="userSpaceOnUse"
       y2="16.5"
       x2="30.170164"
       y1="16.5"
       x1="3"
       id="linearGradient862"
       xlink:href="#linearGradient844"
       inkscape:collect="always" />
  </defs>
  <g
     transform="translate(4.7875381)"
     style="fill:url(#linearGradient846);fill-opacity:1;stroke:url(#linearGradient862);stroke-width:0.25;stroke-miterlimit:4;stroke-dasharray:none"
     stroke-width="1"
     stroke="none"
     id="Page-1"
     fill-rule="evenodd"
     fill="none">
    <g
       style="fill:url(#linearGradient854);fill-opacity:1;stroke:url(#linearGradient862);stroke-width:0.25;stroke-miterlimit:4;stroke-dasharray:none"
       id="icon-136-document-edit"
       fill="#157EFB">
      <path
         style="fill:url(#linearGradient852);fill-opacity:1;stroke:url(#linearGradient862);stroke-width:0.25;stroke-miterlimit:4;stroke-dasharray:none"
         id="document-edit"
         d="M 26.443228,12.150335 15.157013,23.449906 v 0 L 12.551447,20.84434 23.843538,9.5506451 Z M 27.149916,11.44281 28.879095,9.7115841 C 29.269069,9.3211489 29.266195,8.6865042 28.8743,8.295685 L 27.694487,7.11911 C 27.301865,6.7275656 26.669258,6.7245247 26.277913,7.1159253 L 24.550595,8.8434882 Z M 11.903706,21.610813 11.26416,24.72351 14.399065,24.106171 Z M 22,10 v 0 L 16,3 H 5.0027601 C 3.8966663,3 3,3.8983383 3,5.0073299 V 27.99267 C 3,29.101288 3.8909254,30 4.9974219,30 H 20.002578 C 21.105724,30 22,29.101788 22,28.009205 V 18 l 7.580107,-7.580107 c 0.784185,-0.7841852 0.786081,-2.0537049 0.0096,-2.8301434 L 28.41025,6.4102504 C 27.631391,5.6313906 26.372781,5.627219 25.580107,6.4198933 Z m -1,9 v 9.006602 C 21,28.555054 20.552303,29 20.00004,29 H 4.9999602 C 4.4547089,29 4,28.554319 4,28.004543 V 4.995457 C 4,4.4552629 4.4457352,4 4.9955775,4 H 15 V 8.994081 C 15,10.113445 15.894496,11 16.997913,11 H 21 l -10,10 -1,5 5,-1 z M 16,4.5 V 8.9912152 C 16,9.5483517 16.450651,10 16.996739,10 h 3.703212 z" />
    </g>
  </g>
</svg>
