<?xml version="1.0" encoding="UTF-8" standalone="no"?>
<svg
   xmlns:dc="http://purl.org/dc/elements/1.1/"
   xmlns:cc="http://creativecommons.org/ns#"
   xmlns:rdf="http://www.w3.org/1999/02/22-rdf-syntax-ns#"
   xmlns:svg="http://www.w3.org/2000/svg"
   xmlns="http://www.w3.org/2000/svg"
   xmlns:xlink="http://www.w3.org/1999/xlink"
   xmlns:sodipodi="http://sodipodi.sourceforge.net/DTD/sodipodi-0.dtd"
   xmlns:inkscape="http://www.inkscape.org/namespaces/inkscape"
   inkscape:version="1.0 (4035a4fb49, 2020-05-01)"
   sodipodi:docname="icon-launch.svg"
   xml:space="preserve"
   viewBox="0 0 200 200"
   version="1.1"
   style="enable-background:new 0 0 200 200;"
   id="Layer_1"><metadata
     id="metadata32"><rdf:RDF><cc:Work
         rdf:about=""><dc:format>image/svg+xml</dc:format><dc:type
           rdf:resource="http://purl.org/dc/dcmitype/StillImage" /></cc:Work></rdf:RDF></metadata><defs
     id="defs30"><linearGradient
       gradientTransform="translate(8.8191492)"
       y2="71.496399"
       x2="-26.507601"
       y1="218.83611"
       x1="120.8321"
       gradientUnits="userSpaceOnUse"
       id="linearGradient857"
       xlink:href="#SVGID_2_"
       inkscape:collect="always" /><linearGradient
       gradientTransform="translate(8.8191492)"
       spreadMethod="pad"
       y2="48.682999"
       x2="-3.6942"
       y1="196.0228"
       x1="143.64549"
       gradientUnits="userSpaceOnUse"
       id="linearGradient859"
       xlink:href="#SVGID_2_"
       inkscape:collect="always" /><linearGradient
       gradientTransform="translate(8.8191492)"
       y2="7.4516001"
       x2="37.537201"
       y1="154.79131"
       x1="184.87691"
       gradientUnits="userSpaceOnUse"
       id="linearGradient861"
       xlink:href="#SVGID_2_"
       inkscape:collect="always" /></defs><sodipodi:namedview
     inkscape:current-layer="g25"
     inkscape:window-maximized="1"
     inkscape:window-y="-9"
     inkscape:window-x="-9"
     inkscape:cy="87.879897"
     inkscape:cx="83.850195"
     inkscape:zoom="3.1749094"
     showgrid="false"
     id="namedview28"
     inkscape:window-height="1051"
     inkscape:window-width="1920"
     inkscape:pageshadow="2"
     inkscape:pageopacity="0"
     guidetolerance="10"
     gridtolerance="10"
     objecttolerance="10"
     borderopacity="1"
     bordercolor="#666666"
     pagecolor="#ffffff" /><style
     id="style2"
     type="text/css">
	.st0{fill:url(#SVGID_1_);}
	.st1{fill:url(#SVGID_2_);}
	.st2{fill:url(#SVGID_3_);}
</style><g
     id="g25"><linearGradient
       y2="71.4964"
       y1="218.8361"
       x2="-26.5076"
       x1="120.8321"
       id="SVGID_1_"
       gradientUnits="userSpaceOnUse"><stop
         id="stop4"
         style="stop-color:#c88b8b;stop-opacity:1"
         offset="0" /><stop
         id="stop6"
         style="stop-color:#c8c08b;stop-opacity:1"
         offset="1" /></linearGradient><path
       style="fill:url(#linearGradient857);fill-opacity:1"
       id="path9"
       d="m 73.886149,150.666 -12.405,12.405 c -1.356,1.356 -1.356,3.554 0,4.91 0.678,0.678 1.567,1.017 2.455,1.017 0.888,0 1.778,-0.339 2.455,-1.017 l 12.405,-12.405 c 1.356,-1.356 1.356,-3.554 0,-4.91 -1.354,-1.356 -3.554,-1.356 -4.91,0 z"
       class="st0" /><linearGradient
       xlink:href="#SVGID_3_"
       y2="7.4516001"
       y1="154.79131"
       x2="37.537201"
       x1="184.87691"
       id="SVGID_2_"
       gradientUnits="userSpaceOnUse"><stop
         id="stop11"
         style="stop-color:#c88b8b;stop-opacity:1"
         offset="0" /><stop
         id="stop13"
         style="stop-color:#d3c539;stop-opacity:1"
         offset="1" /></linearGradient><path
       style="fill:url(#linearGradient861);fill-opacity:1"
       id="path16"
       d="m 181.95415,26.865 c -1.621,-1.621 -3.91,-2.237 -6.125,-1.643 l -11.619,3.105 c -20.481,5.48 -40.218,15.984 -57.077,30.376 -1.459,1.245 -1.632,3.437 -0.387,4.895 1.247,1.461 3.438,1.631 4.895,0.387 16.076,-13.724 34.875,-23.735 54.363,-28.949 l 10.618,-2.837 -2.839,10.615 c -7.144,26.717 -23.205,51.82 -45.225,70.688 -0.05,0.043 -0.087,0.096 -0.135,0.141 -0.088,0.085 -0.173,0.17 -0.251,0.263 -0.072,0.085 -0.137,0.173 -0.2,0.264 -0.065,0.093 -0.125,0.188 -0.18,0.287 -0.055,0.098 -0.102,0.198 -0.147,0.3 -0.045,0.104 -0.086,0.208 -0.121,0.317 -0.034,0.107 -0.062,0.214 -0.086,0.323 -0.024,0.109 -0.044,0.218 -0.058,0.33 -0.014,0.12 -0.019,0.239 -0.021,0.359 -0.001,0.067 -0.014,0.13 -0.012,0.198 l 1.219,29.062 c 0.087,1.996 -1.055,4.147 -2.787,5.235 l -23.706,14.995 -2.447001,-25.468 c -0.184,-1.909 -1.866,-3.306 -3.789,-3.124 -1.908,0.184 -3.308,1.88 -3.124,3.789 l 2.987,31.089 c 0.116,1.2 0.846,2.256 1.929,2.786 0.483,0.237 1.006,0.354 1.527,0.354 0.647,0 1.292001,-0.18 1.856001,-0.538 l 28.471,-18.008 c 3.853,-2.423 6.216,-6.902 6.021,-11.405 l -1.15,-27.412 c 22.407,-19.639 38.774,-45.5 46.135,-73.029 l 3.106,-11.616 c 0.595,-2.218 -0.019,-4.508 -1.641,-6.129 z"
       class="st1" /><linearGradient
       spreadMethod="pad"
       y2="48.682999"
       y1="196.0228"
       x2="-3.6942"
       x1="143.64549"
       id="SVGID_3_"
       gradientUnits="userSpaceOnUse"><stop
         id="stop18"
         style="stop-color:#c88b8b;stop-opacity:1"
         offset="0" /><stop
         id="stop20"
         style="stop-color:#d3c539;stop-opacity:1"
         offset="1" /></linearGradient><path
       style="fill:url(#linearGradient859);fill-opacity:1"
       id="path23"
       d="m 63.457149,80.248 28.977,1.341 c 1.912,0.075 3.54,-1.392 3.63,-3.308 0.088,-1.916 -1.393,-3.541 -3.308,-3.629 l -28.996,-1.342 c -4.511,-0.186 -8.96,2.175 -11.397,6.013 l -18.014,28.477 c -0.673,1.064 -0.702,2.409 -0.1,3.516 0.602,1.106 1.771,1.8 3.03,1.813 1.27,0.013 12.629,1.109 28.936,2.791 0.378,0.039 0.734,0.209 1.003,0.477 l 1.176,1.176 -26.207,26.205 c -1.356,1.356 -1.356,3.554 0,4.91 0.678,0.678 1.567,1.017 2.455,1.017 0.888,0 1.778,-0.339 2.455,-1.017 l 26.207,-26.205 4.157,4.156 c 0.678,0.678 1.567,1.017 2.455,1.017 0.888,0 1.778,-0.339 2.455,-1.017 1.356,-1.356 1.356,-3.554 0,-4.91 l -10.243,-10.242 c -1.393,-1.394 -3.24,-2.272 -5.2,-2.475 -8.209,-0.847 -17.619,-1.8 -23.638,-2.356 l 14.938,-23.616 c 1.096,-1.725 3.281,-2.856 5.229,-2.792 z"
       class="st2" /></g></svg>
