<svg xmlns="http://www.w3.org/2000/svg" xmlns:xlink="http://www.w3.org/1999/xlink" width="32" height="32"><defs><linearGradient id="a"><stop offset="0" stop-color="#c8c78b"/><stop offset="1" stop-color="#c88b8b"/></linearGradient><linearGradient gradientUnits="userSpaceOnUse" y2="31.822" x2="33.281" y1=".57" x1=".287" id="b" xlink:href="#a"/><linearGradient y2="31.822" x2="33.281" y1=".57" x1=".287" gradientUnits="userSpaceOnUse" id="f" xlink:href="#a"/><linearGradient y2="31.822" x2="33.281" y1=".57" x1=".287" gradientUnits="userSpaceOnUse" id="h" xlink:href="#a"/><linearGradient y2="31.822" x2="33.281" y1=".57" x1=".287" gradientUnits="userSpaceOnUse" id="d" xlink:href="#a"/><linearGradient y2="31.822" x2="33.281" y1=".57" x1=".287" gradientUnits="userSpaceOnUse" id="l" xlink:href="#a"/><linearGradient y2="31.822" x2="33.281" y1=".57" x1=".287" gradientUnits="userSpaceOnUse" id="n" xlink:href="#a"/><linearGradient y2="31.822" x2="33.281" y1=".57" x1=".287" gradientUnits="userSpaceOnUse" id="p" xlink:href="#a"/><linearGradient y2="31.822" x2="33.281" y1=".57" x1=".287" gradientUnits="userSpaceOnUse" id="j" xlink:href="#a"/><linearGradient y2="31.822" x2="33.281" y1=".57" x1=".287" gradientUnits="userSpaceOnUse" id="t" xlink:href="#a"/><linearGradient y2="31.822" x2="33.281" y1=".57" x1=".287" gradientUnits="userSpaceOnUse" id="v" xlink:href="#a"/><linearGradient y2="31.822" x2="33.281" y1=".57" x1=".287" gradientUnits="userSpaceOnUse" id="r" xlink:href="#a"/><linearGradient gradientUnits="userSpaceOnUse" y2="16" x2="31" y1="16" x1="1" id="c" xlink:href="#a"/><linearGradient y2="16" x2="31" y1="16" x1="1" gradientUnits="userSpaceOnUse" id="m" xlink:href="#a"/><linearGradient y2="16" x2="31" y1="16" x1="1" gradientUnits="userSpaceOnUse" id="o" xlink:href="#a"/><linearGradient y2="16" x2="31" y1="16" x1="1" gradientUnits="userSpaceOnUse" id="q" xlink:href="#a"/><linearGradient y2="16" x2="31" y1="16" x1="1" gradientUnits="userSpaceOnUse" id="k" xlink:href="#a"/><linearGradient y2="16" x2="31" y1="-2.663" x1="20.896" gradientUnits="userSpaceOnUse" id="g" xlink:href="#a"/><linearGradient y2="28.162" x2="35.147" y1="-1.822" x1="15.964" gradientUnits="userSpaceOnUse" id="u" xlink:href="#a"/><linearGradient y2="16" x2="31" y1="16" x1="1" gradientUnits="userSpaceOnUse" id="i" xlink:href="#a"/><linearGradient y2="16" x2="31" y1="16" x1="1" gradientUnits="userSpaceOnUse" id="e" xlink:href="#a"/><linearGradient y2="16" x2="31" y1="16" x1="1" gradientUnits="userSpaceOnUse" id="w" xlink:href="#a"/><linearGradient y2="16" x2="31" y1="16" x1="1" gradientUnits="userSpaceOnUse" id="s" xlink:href="#a"/></defs><g transform="translate(1.613 1.613) scale(.89921)" fill="url(#b)" stroke-width=".278" stroke="url(#c)"><g fill="url(#d)" stroke="url(#e)" transform="matrix(.972 0 0 .97198 .448 .448)" stroke-width=".286"><path fill="url(#f)" d="M30.5 6a.5.5 0 00.5-.5v-1C31 3.121 29.879 2 28.5 2h-1a.5.5 0 000 1h1c.827 0 1.5.673 1.5 1.5v1a.5.5 0 00.5.5z" stroke="url(#g)"/><path fill="url(#h)" d="M1 27.5v-1a.5.5 0 01.5-.5h21a.5.5 0 01.5.5v1c0 .827.673 1.5 1.5 1.5a.5.5 0 010 1h-21A2.502 2.502 0 011 27.5zm21 0V27H2v.5c0 .827.673 1.5 1.5 1.5h19.001A2.489 2.489 0 0122 27.5z" stroke="url(#i)"/></g><g fill="url(#j)" stroke="url(#k)" transform="matrix(.78381 0 0 .7838 4.212 3.46)" stroke-width=".355"><path fill="url(#l)" d="M22.011 18.01a.502.502 0 000 .708l1.414 1.414a.5.5 0 00.707-.707l-1.414-1.415a.499.499 0 00-.707 0z" stroke="url(#m)"/><path fill="url(#n)" d="M17 21c-4.411 0-8-3.589-8-8s3.589-8 8-8c1.66 0 3.252.504 4.605 1.458a.499.499 0 11-.576.816A6.954 6.954 0 0017 6c-3.86 0-7 3.141-7 7s3.14 7 7 7 7-3.141 7-7c0-.719-.108-1.427-.322-2.105a.501.501 0 01.954-.301C24.876 11.37 25 12.18 25 13c0 4.411-3.589 8-8 8z" stroke="url(#o)"/><path fill="url(#p)" d="M25 20c.256 0 .512.098.707.293l4 4a.999.999 0 11-1.414 1.414l-4-4A.999.999 0 0125 20zm0-1c-.534 0-1.036.208-1.414.586-.378.378-.586.88-.586 1.414 0 .534.208 1.036.586 1.414l4 4c.378.378.88.586 1.414.586.534 0 1.036-.208 1.414-.586.378-.378.586-.88.586-1.414 0-.534-.208-1.036-.586-1.414l-4-4A1.986 1.986 0 0025 19z" stroke="url(#q)"/></g><g transform="matrix(.972 0 0 .97198 .448 .448)" fill="url(#r)" stroke="url(#s)" stroke-width=".286"><path fill="url(#t)" d="M28.5 3a.5.5 0 000-1h-20A2.502 2.502 0 006 4.5v20a.5.5 0 001 0v-20C7 3.673 7.673 3 8.5 3h18.001A2.491 2.491 0 0026 4.5v13a.5.5 0 00.5.5v0a.5.5 0 00.5-.5v-13c0-.827.673-1.5 1.5-1.5z" stroke="url(#u)"/><path fill="url(#v)" d="M24.5 29h-1.75v1h1.75c1.379 0 2.5-1.121 2.5-2.5v0a.5.5 0 00-.5-.5v0a.5.5 0 00-.5.5v0c0 .827-.673 1.5-1.5 1.5z" stroke="url(#w)"/></g></g></svg>