<svg xmlns="http://www.w3.org/2000/svg" xmlns:xlink="http://www.w3.org/1999/xlink" width="36" height="32"><defs><linearGradient id="a"><stop offset="0" stop-color="#c6c88b"/><stop offset="1" stop-color="#c88b8b"/></linearGradient><linearGradient y2="29.507" x2="30.099" y1="1.284" x1="1.682" gradientUnits="userSpaceOnUse" id="b" xlink:href="#a"/><linearGradient gradientUnits="userSpaceOnUse" y2="16.5" x2="30.17" y1="16.5" x1="3" id="c" xlink:href="#a"/></defs><path d="M26.443 12.15l-11.286 11.3v0l-2.606-2.606L23.844 9.551zm.707-.707l1.73-1.731c.39-.39.386-1.025-.006-1.416l-1.18-1.177a1.001 1.001 0 00-1.416-.003L24.55 8.843zM11.904 21.61l-.64 3.113 3.135-.618zM22 10v0l-6-7H5.003A2.005 2.005 0 003 5.007v22.986A2 2 0 004.997 30h15.006A1.999 1.999 0 0022 28.01V18l7.58-7.58a2.003 2.003 0 00.01-2.83l-1.18-1.18a1.994 1.994 0 00-2.83.01zm-1 9v9.007A.997.997 0 0120 29H5c-.545 0-1-.446-1-.995V4.995c0-.54.446-.995.996-.995H15v4.994c0 1.12.894 2.006 1.998 2.006H21L11 21l-1 5 5-1zM16 4.5v4.491c0 .557.45 1.009.997 1.009H20.7z" fill="url(#b)" transform="translate(4.788)" stroke-width=".25" stroke="url(#c)" fill-rule="evenodd"/></svg>