<svg xmlns="http://www.w3.org/2000/svg" xmlns:xlink="http://www.w3.org/1999/xlink" viewBox="0 0 200 200"><defs><linearGradient gradientTransform="translate(8.82)" y2="71.496" x2="-26.508" y1="218.836" x1="120.832" gradientUnits="userSpaceOnUse" id="b" xlink:href="#a"/><linearGradient gradientTransform="translate(8.82)" spreadMethod="pad" y2="48.683" x2="-3.694" y1="196.023" x1="143.645" gradientUnits="userSpaceOnUse" id="e" xlink:href="#a"/><linearGradient gradientTransform="translate(8.82)" y2="7.452" x2="37.537" y1="154.791" x1="184.877" gradientUnits="userSpaceOnUse" id="d" xlink:href="#a"/></defs><path d="M73.886 150.666l-12.405 12.405a3.472 3.472 0 104.91 4.91l12.405-12.405a3.472 3.472 0 10-4.91-4.91z" fill="url(#b)"/><linearGradient xlink:href="#c" y2="7.452" y1="154.791" x2="37.537" x1="184.877" id="a" gradientUnits="userSpaceOnUse"><stop offset="0" stop-color="#c88b8b"/><stop offset="1" stop-color="#d3c539"/></linearGradient><path d="M181.954 26.865a6.275 6.275 0 00-6.125-1.643l-11.619 3.105c-20.48 5.48-40.218 15.984-57.077 30.376a3.472 3.472 0 104.508 5.282c16.076-13.724 34.875-23.735 54.363-28.949l10.618-2.837-2.839 10.615c-7.144 26.717-23.205 51.82-45.225 70.688-.05.043-.087.096-.135.141-.088.085-.173.17-.25.263a3.389 3.389 0 00-.2.264 3.283 3.283 0 00-.328.587 3.451 3.451 0 00-.265.97 3.6 3.6 0 00-.02.359c-.002.067-.015.13-.013.198l1.22 29.062c.086 1.996-1.056 4.147-2.788 5.235l-23.706 14.995-2.447-25.468a3.473 3.473 0 00-6.913.665l2.987 31.089a3.474 3.474 0 005.312 2.602l28.471-18.008c3.853-2.423 6.216-6.902 6.021-11.405l-1.15-27.412C156.761 98 173.128 72.139 180.49 44.61l3.106-11.616a6.275 6.275 0 00-1.64-6.129z" fill="url(#d)"/><linearGradient spreadMethod="pad" y2="48.683" y1="196.023" x2="-3.694" x1="143.645" id="c" gradientUnits="userSpaceOnUse"><stop offset="0" stop-color="#c88b8b"/><stop offset="1" stop-color="#d3c539"/></linearGradient><path d="M63.457 80.248l28.977 1.341c1.912.075 3.54-1.392 3.63-3.308a3.472 3.472 0 00-3.308-3.629L63.76 73.31c-4.51-.186-8.96 2.175-11.397 6.013L34.35 107.8a3.472 3.472 0 00-.1 3.516 3.498 3.498 0 003.03 1.813c1.27.013 12.63 1.109 28.936 2.791.378.039.734.209 1.003.477l1.176 1.176-26.207 26.205a3.472 3.472 0 104.91 4.91l26.207-26.205 4.157 4.156a3.462 3.462 0 002.455 1.017 3.472 3.472 0 002.455-5.927l-10.243-10.242a8.628 8.628 0 00-5.2-2.475c-8.209-.847-17.619-1.8-23.638-2.356L58.228 83.04c1.096-1.725 3.281-2.856 5.23-2.792z" fill="url(#e)"/></svg>