<svg xmlns="http://www.w3.org/2000/svg" height="442.906" width="317.758"><path d="M30.692 26.124c-18.128 13.357-70.006 86.256 23.83 253.53 98.847 176.21 194.792 169.89 214.152 158.184l-66.718-115.559c-16.125 9.31-29.506-6.375-54.107-40.475-16.277-22.564-34.12-51.827-48-83.139-9.738-21.971-17.549-44.396-.662-54.146zm279.673 387.915c7.47-4.312 9.313-13.491 5.376-20.311l.021-.084-52.084-90.09c-4.125-7.146-13.167-9.435-20.204-5.373l-32.735 18.9 66.89 115.858s32.684-18.803 32.696-18.846zm-169.5-293.583c7.47-4.312 9.313-13.49 5.376-20.31l.021-.085L92.678 7.372C88.553.228 79.511-2.062 72.474 2.001L39.74 20.9l68.39 118.455s32.684-18.803 32.696-18.845z" fill="#f0f0f0"/></svg>